# xmcd
#
# Track frame offsets: 
#        150
#        22200
#        46800
#        62363
#        82763
#        108396
#        121296
#        150431
#        178781
#        202278
#
# Disc length: 3028 seconds
#
# Revision: 0
# Processed by: cddbd v1.5.2PL0 Copyright (c) Steve Scherf et al.
# Submitted via: ExactAudioCopyFreeDBPlugin 1.0
#
DISCID=7c0bd20a
DTITLE=Dawn Moth - Soul Goes On
DYEAR=2013
DGENRE=Soul
TTITLE0=Carmel, the Pilgrim's Song
TTITLE1=The Soul Goes On
TTITLE2=Prayer of the Báb
TTITLE3=Remover of Difficulties
TTITLE4=The Healing Prayer
TTITLE5=God is Sufficient Unto Me
TTITLE6=Three Flights Down
TTITLE7=A Light Shining in `Akká
TTITLE8=Never Heard the Name
TTITLE9=All We Want is Peace
EXTD=
EXTT0=
EXTT1=
EXTT2=
EXTT3=
EXTT4=
EXTT5=
EXTT6=
EXTT7=
EXTT8=
EXTT9=
PLAYORDER=
